<?xml version="1.0" encoding="utf-8"?>
<!-- Generator: Adobe Illustrator 15.1.0, SVG Export Plug-In . SVG Version: 6.00 Build 0)  -->
<!DOCTYPE svg PUBLIC "-//W3C//DTD SVG 1.1//EN" "http://www.w3.org/Graphics/SVG/1.1/DTD/svg11.dtd">
<svg version="1.1" xmlns="http://www.w3.org/2000/svg" xmlns:xlink="http://www.w3.org/1999/xlink" x="0px" y="0px"
	 width="422.76px" height="563.174px" viewBox="0 -96 422.76 563.174" enable-background="new 0 -96 422.76 563.174"
	 xml:space="preserve">
<g id="Layer_3">
	<g id="Layer_7">
		<path stroke="#FFFFFF" stroke-miterlimit="10" d="M72.667,841.668c0,0-114.667,11.333-148.667-46.667c0,0-34-5.333-38.667,4.667
			s37.333,7.332,42,18.666s51.333,52.667,138,62.667C65.333,881.001,76,859.002,72.667,841.668z"/>
	</g>
	<path d="M55,816c0,0,82-10,140-47c0,0,88,183-23,255c0,0-119-47-163-18S99,889,55,816"/>
	<g id="Layer_4">
		<path fill="#FFFFFF" d="M172.469,820.658c0,0-11.113,75.471-54.194,83.607c-43.082,8.136,1.072,1.034,1.072,1.034
			s2.918-73.848-42.59-95.82c-45.508-21.972,0.399-1.272,0.399-1.272s57.881,18.17,94.04,12.052"/>
	</g>
	<path stroke="#FFFFFF" stroke-miterlimit="10" d="M207,796c0,0-116,145-218,101c0,0,10,33,39,35s126-7,193-88L207,796z"/>
</g>
<g id="bunny">
	<g id="Layer_9">
	</g>
	<g>
		<path fill="#FFFFFF" stroke="#000000" stroke-width="1.3073" stroke-miterlimit="10" d="M-89.018,743.284
			c0.962-0.656,1.879-1.408,2.741-2.247c0.405,0.035,0.813,0.059,1.228,0.059c7.34,0,13.291-5.561,13.291-12.419
			c0-4.591-2.673-8.591-6.637-10.739c-0.445-5.737-2.364-10.922-5.267-14.933c3.772-4.246,8.067-9.623,11.465-16.25
			c4.82-10.904,10-21.475,9.918-27.982c0.234-6.627-4.793-9.192-13.086-6.83c-7.046,2.787-12.855,7.707-17.332,11.966
			c-4.384,4.518-7.437,8.375-6.842,15.001c0.143,5.105-1,10.456-1.179,15.928c-1.243,0.168-2.453,0.478-3.619,0.92
			c0.141-6.248-1.351-12.359-1.188-18.155c0.595-6.626-2.458-10.482-6.842-15c-4.477-4.26-10.286-9.18-17.332-11.967
			c-8.293-2.362-13.32,0.203-13.086,6.83c-0.082,6.508,5.098,17.078,9.918,27.982c5.198,10.137,12.493,17.354,16.804,22.059
			c-1.383,3.019-2.3,6.427-2.624,10.064c-4.113,2.258-6.889,6.479-6.889,11.325c0,7.22,6.146,13.072,13.727,13.072
			c0.636,0,1.257-0.055,1.871-0.135c1.171,1.02,2.432,1.885,3.761,2.578c-8.579,4.222-14.565,13.73-14.565,24.791
			c-1.724,8.443,0.493,13.961,5.573,17.221c4.496,6.049,11.31,9.906,18.938,9.906c7.629,0,14.443-3.857,18.938-9.906
			c5.08-3.26,7.297-8.777,5.573-17.221C-71.759,757.016-79.021,746.706-89.018,743.284z"/>
		<circle cx="-108.799" cy="712.554" r="2.615"/>
		<circle cx="-89.189" cy="712.554" r="2.615"/>
		<ellipse cx="-98.667" cy="723.666" rx="4.031" ry="3.486"/>
		<text transform="matrix(1 0 0 1 -100.7363 732.1643)" font-family="'MyriadPro-Regular'" font-size="7.8438">J</text>
		<text transform="matrix(-1 0 0 1 -95.9434 732.1643)" font-family="'MyriadPro-Regular'" font-size="7.8438">J</text>
	</g>
</g>
<g id="Layer_5">
	<g>
		<polygon fill="#FFFFFF" stroke="#000000" stroke-width="0.4252" stroke-miterlimit="10" points="5.516,906.238 -19.713,905.954 
			-28.5,862.017 7.5,861.166 		"/>
		<g>
			<path fill="#ED1F24" d="M-17.084,867.338c-0.677,0-0.959,0.207-1.519,0.873l-0.872,1.039l-0.872-1.039
				c-0.559-0.666-0.841-0.873-1.518-0.873c-0.111,0-0.232,0.006-0.361,0.019c-0.47,0.046-1.203,0.547-1.314,1.738v0.498
				c0.138,1.495,1.505,3.214,4.065,5.117c2.56-1.903,3.927-3.622,4.065-5.117v-0.498c-0.112-1.191-0.844-1.692-1.314-1.738
				C-16.852,867.344-16.973,867.338-17.084,867.338L-17.084,867.338z"/>
		</g>
		<g>
			<path fill="#ED1F24" d="M-8.297,876.408c-0.677,0-0.959,0.207-1.518,0.873l-0.872,1.04l-0.872-1.039
				c-0.559-0.667-0.841-0.874-1.518-0.874c-0.111,0-0.232,0.007-0.361,0.02c-0.471,0.046-1.203,0.547-1.314,1.737v0.498
				c0.139,1.496,1.505,3.215,4.065,5.118c2.56-1.903,3.926-3.623,4.065-5.118v-0.498c-0.112-1.19-0.844-1.691-1.314-1.737
				C-8.064,876.415-8.186,876.408-8.297,876.408L-8.297,876.408z"/>
		</g>
		<g>
			<path fill="#ED1F24" d="M0.207,886.33c-0.677,0-0.959,0.207-1.518,0.873l-0.872,1.039l-0.872-1.038
				c-0.559-0.667-0.841-0.874-1.518-0.874c-0.111,0-0.232,0.006-0.361,0.02c-0.471,0.045-1.203,0.547-1.314,1.737v0.498
				c0.139,1.495,1.505,3.215,4.065,5.117c2.56-1.902,3.927-3.622,4.065-5.117v-0.498c-0.112-1.19-0.844-1.692-1.314-1.737
				C0.439,886.336,0.318,886.33,0.207,886.33L0.207,886.33z"/>
		</g>
	</g>
	<g>
		<polygon fill="#FFFFFF" stroke="#000000" stroke-width="0.5595" stroke-miterlimit="10" points="-1.266,908.014 -31.733,921.196 
			-65.842,873.11 -23.039,852.791 		"/>
		<g>
			<path fill="#ED1F24" d="M-49.272,873.385c-0.813,0.362-1.041,0.763-1.356,1.862l-0.491,1.716l-1.605-0.781
				c-1.029-0.501-1.479-0.598-2.292-0.235c-0.134,0.06-0.276,0.131-0.424,0.216c-0.54,0.308-1.152,1.302-0.647,2.792l0.267,0.599
				c0.968,1.724,3.531,3.056,7.627,3.971c2.057-3.659,2.777-6.457,2.142-8.327l-0.267-0.599c-0.774-1.371-1.921-1.582-2.512-1.384
				C-48.99,873.266-49.138,873.325-49.272,873.385L-49.272,873.385z"/>
		</g>
		<g>
			<path fill="#ED1F24" d="M-33.851,879.574c-0.813,0.362-1.042,0.762-1.356,1.861l-0.49,1.718l-1.605-0.781
				c-1.029-0.502-1.479-0.6-2.292-0.236c-0.133,0.06-0.275,0.133-0.423,0.216c-0.541,0.309-1.152,1.302-0.648,2.792l0.267,0.599
				c0.968,1.724,3.532,3.058,7.628,3.972c2.057-3.659,2.776-6.458,2.141-8.328l-0.267-0.599c-0.772-1.371-1.92-1.581-2.511-1.385
				C-33.568,879.457-33.718,879.514-33.851,879.574L-33.851,879.574z"/>
		</g>
		<g>
			<path fill="#ED1F24" d="M-18.314,886.938c-0.813,0.362-1.042,0.764-1.356,1.863l-0.49,1.715l-1.604-0.779
				c-1.029-0.501-1.479-0.599-2.292-0.236c-0.133,0.059-0.276,0.131-0.423,0.217c-0.542,0.306-1.152,1.302-0.648,2.792l0.268,0.599
				c0.967,1.722,3.531,3.056,7.628,3.97c2.056-3.658,2.776-6.457,2.142-8.328l-0.267-0.599c-0.772-1.369-1.921-1.582-2.511-1.383
				C-18.032,886.821-18.182,886.879-18.314,886.938L-18.314,886.938z"/>
		</g>
	</g>
	<g id="Favorite">
	</g>
</g>
<g id="Layer_1">
	<g id="BG" display="none">
		<rect x="-7.799" y="-53.826" display="inline" fill="#D89E8C" width="1284" height="662"/>
	</g>
	<g id="legs">
		<path fill="#5B3B29" d="M359.299,466.749c8.772-6.648,26.358-25.433,10.46-61.646c-20.55-46.807-30.253,16.553-30.253,16.553
			l0.571,1.712c0,0-92.123-5.755-95.922,43.382H359.299z"/>
		<path fill="#7A543B" d="M377.144,466.749c9.12-6.016,22.558-21.131,8.028-54.227c-20.55-46.806-22.262,16.553-22.262,16.553
			l0.57,1.713c0,0-91.358-11.938-95.873,35.961H377.144z"/>
	</g>
	<g id="arm2">
		<g>
			<path fill="#E2D9D3" d="M380.604,367.048l-2.092-7.42c-5.138,6.85-10.275,13.128-17.125,18.266
				c-6.279,5.137-14.271,9.133-22.261,10.274c-15.983,2.854-30.824-2.284-45.094-8.563c-8.563-3.995-18.837-8.563-28.541-2.854
				c-6.85,4.566-7.991,11.416-7.42,18.836c3.995-2.854,7.42-6.278,12.558-7.42c5.137-1.712,11.416,0,16.554,2.283
				c15.411,6.279,29.682,16.554,46.806,19.407c14.27,2.283,28.54-2.854,36.531-14.841c5.138-7.991,10.275-18.075,9.703-27.208"/>
		</g>
	</g>
	<g id="body">
		<path fill="#F4F1EF" d="M327.52,346.309c38.243,29.111-63.36,87.333-38.244,80.483c25.115-6.849,105.599,40.528,127.29-4.565
			c21.689-45.095-20.55-99.321-20.55-99.321L327.52,346.309z"/>
		<polygon fill="#63B9D3" points="370.541,369.763 370.621,369.664 370.462,369.664 364.481,362.246 358.343,354.631 
			352.204,362.246 346.223,369.664 346.064,369.664 346.145,369.763 346.064,369.862 346.223,369.862 352.204,377.28 
			358.343,384.894 364.481,377.28 370.462,369.862 370.621,369.862 		"/>
		<g>
			<path fill="#63B9D3" d="M357.201,369.712c-0.536,0.915-1.031,1.832-1.487,2.747c-6.157,12.1-5.016,24.2-4.787,36.299
				c0.501,12.101,0.09,24.201-2.859,36.301c7.271,8.372,12.603,16.743,11.987,25.115c9.334-8.372,12.964-16.743,13.698-25.115"/>
		</g>
	</g>
	<g id="arm1">
		<g>
			<path fill="#E2D9D3" d="M411.809,351.066l-2.094-7.421c-5.137,6.85-10.273,13.129-17.124,18.267
				c-6.279,5.137-14.271,9.132-22.261,10.274c-15.983,2.854-30.824-2.283-45.094-8.563c-8.563-3.995-18.837-8.562-28.541-2.854
				c-6.85,4.567-7.991,11.417-7.42,18.837c3.995-2.854,7.42-6.279,12.558-7.42c5.137-1.713,11.416,0,16.554,2.283
				c15.411,6.278,29.682,16.553,46.806,19.407c14.271,2.283,28.54-2.854,36.532-14.841c5.137-7.992,10.274-18.076,9.703-27.208"/>
		</g>
	</g>
	<g id="head">
		<ellipse fill="#DDB597" cx="351.208" cy="295.508" rx="59.078" ry="55.939"/>
		<path fill="#DDB597" d="M403.436,280.096c0,28.057-12.223,59.363-41.383,59.363s-52.8-22.744-52.8-50.801
			c0-28.058,23.64-50.803,52.8-50.803S403.436,252.039,403.436,280.096z"/>
	</g>
	<g id="hair">
		<path d="M372.058,277.206c0,0,18.931-22.991,15.38-35.699c0,0-68.625-21.782-97.021,36.306
			C290.417,277.812,367.915,257.845,372.058,277.206z"/>
		<path d="M392.051,282.379c8.317-15.982,18.414,11.416,18.414,11.416c2.971-28.541-19.007-49.09-19.007-49.09
			c2.97,16.554-14.85,32.536-14.85,32.536"/>
	</g>
	<g id="eyes">
		<path d="M307.16,283.521v-3.425c0,0,25.877-13.319,25.877,0l-3.806,0.381C329.231,280.476,328.471,272.486,307.16,283.521z"/>
		<path d="M341.789,288.467v-3.425c0,0,25.876-13.318,25.876,0l-3.806,0.381C363.859,285.423,363.1,277.432,341.789,288.467z"/>
	</g>
	<g id="beard">
		<path d="M404.202,276.18c-7.742,23.795-26.372,41.018-53.082,41.018c-3.542,0-7.011-0.308-10.383-0.89
			c-45.391-3.38-46.555-28.139-45.088-40.482c-0.161-0.505-2.038-1.009-2.185-1.52c-1.853,5.694-2.857,11.762-2.857,18.063
			c0,32.628,26.834,59.078,59.936,59.078c33.1,0,59.935-26.45,59.935-59.078C410.477,286.755,405.687,281.325,404.202,276.18z
			 M313.964,314.154c0,0,19.688,12.558,66.015,0.381C379.979,314.534,343.688,372.756,313.964,314.154z"/>
	</g>
	<g id="legs2">
		<polygon fill="#7A543B" points="113.138,467.174 122.535,393.175 51.868,371.175 28.31,467.174 		"/>
		<polygon fill="#5B3B29" points="177.392,467.174 186.535,395.175 115.868,373.175 92.8,467.174 		"/>
	</g>
	<g id="body2">
		<path fill="#62B8D2" d="M67.201,214.174c0,0-132,112-26,202c0,0,126-52,154-6c0,0-55-116-13-165S87.201,249.174,67.201,214.174z"
			/>
		<path fill="none" stroke="#4F77B2" stroke-miterlimit="10" d="M17.201,341.174c0,0,63,12,75-11s19,69-23,73
			S20.201,366.174,17.201,341.174z"/>
		<path fill="none" stroke="#4F77B2" stroke-width="0.6081" stroke-miterlimit="10" d="M111.332,330.932
			c0,0,34.691,17.823,45.644,6.468c10.951-11.354-0.771,43.517-25.959,38.634C105.827,371.151,108.787,346.03,111.332,330.932z"/>
	</g>
	<g id="arm1_1_">
		<g>
			<path fill="#4A96A3" d="M53.466,207.274l10.191-1.018c-5.2,10.884-9.711,21.462-11.828,33.837
				c-2.457,11.574-2.517,24.944,0.863,36.795c6.073,24.001,21.1,42.128,37.164,58.845c9.913,9.907,21.534,21.917,20.43,38.614
				c-1.43,12.071-9.007,17.334-18.293,20.495c1.063-7.146,3.153-13.789,1.47-21.624c-0.992-8.142-6.795-16.058-12.604-22.063
				c-16.744-18.32-37.625-32.9-51.258-55.461c-11.247-18.852-13.547-41.663-3.854-59.303c6.577-11.492,15.676-24.101,27.027-28.175"
				/>
		</g>
	</g>
	<g id="head2">
		<ellipse fill="#DDB597" cx="138.499" cy="160.174" rx="103.5" ry="98"/>
		<path fill="#DDB597" d="M46.999,133.174c0,49.153,21.414,104,72.5,104s92.5-39.847,92.5-89s-41.414-89-92.5-89
			S46.999,84.021,46.999,133.174z"/>
		<path d="M101.974,128.114c0,0-33.166-40.28-26.947-62.543c0,0,120.225-38.16,169.973,63.604
			C244.999,129.174,109.229,94.192,101.974,128.114z"/>
		<path d="M66.944,137.174c-14.569-28-32.26,20-32.26,20c-5.202-50,33.3-86,33.3-86c-5.203,29,26.015,57,26.015,57"/>
		<path d="M215.665,162.507v-6c0,0-45.333-23.333-45.333,0l6.667,0.667C176.999,157.173,178.331,143.174,215.665,162.507z"/>
		<path d="M154.999,147.84v-6c0,0-45.333-23.333-45.333,0l6.667,0.667C116.333,142.507,117.665,128.507,154.999,147.84z"/>
		<path d="M34.666,154.674c0,57.161,47.011,103.5,105,103.5c57.989,0,105-46.339,105-103.5c0-11.037-1.76-21.667-5.005-31.644
			c-0.259,0.896-3.546,1.777-3.828,2.662c2.569,21.627,0.53,65-78.99,70.921c-5.908,1.02-11.984,1.561-18.19,1.561
			c-46.792,0-79.43-30.175-92.995-71.859C43.057,135.327,34.666,144.84,34.666,154.674z"/>
		<path fill="none" stroke="#DDB597" stroke-miterlimit="10" d="M96.201,228.174c29,0,18-31.5,49.5,0"/>
	</g>
	<ellipse fill="#DDB597" cx="102.702" cy="732.174" rx="103.5" ry="98"/>
	<path fill="#DDB597" d="M121.702,631.174c-51.086,0-92.5,39.847-92.5,89s41.414,89,92.5,89s72.5-54.847,72.5-104
		S172.788,631.174,121.702,631.174z"/>
	<path d="M-3.799,701.175c49.748-101.765,169.973-63.604,169.973-63.604c6.219,22.263-26.947,62.543-26.947,62.543
		C131.972,666.192-3.798,701.174-3.799,701.175z"/>
	<path d="M147.202,700.174c0,0,31.218-28,26.015-57c0,0,38.501,36,33.3,86c0,0-17.691-48-32.26-20"/>
	<path d="M64.202,729.174l6.667-0.667c0-23.333-45.333,0-45.333,0v6C62.87,715.174,64.202,729.173,64.202,729.174z"/>
	<path d="M124.868,714.507l6.667-0.667c0-23.333-45.333,0-45.333,0v6C123.536,700.507,124.868,714.507,124.868,714.507z"/>
	<g id="Layer_16">
	</g>
	<g id="arm2_1_">
		<g>
			<path fill="#4A96A3" d="M172.042,369l9.208,3.089c-3.48-10.21-6.369-20.018-6.853-30.79c-0.891-10.185,0.625-21.336,5.109-30.465
				c8.377-18.661,24.261-30.46,40.928-40.854c10.235-6.074,22.282-13.523,23.232-27.679c0.109-10.371-6.208-16.422-14.338-21.097
				c0.134,6.186,1.27,12.182-1.191,18.339c-1.865,6.562-8.104,11.882-14.129,15.605c-17.478,11.583-38.302,19.142-53.431,34.938
				c-12.507,13.229-17.292,31.729-10.49,48.559c4.67,11.021,11.52,23.525,21.431,29.416"/>
		</g>
	</g>
	<g id="palet">
		<path fill="#7A3B1B" d="M170.119,354.796c-11.088-28.147-25.927-6.063-25.927-6.063c-1.935,2.376-5.191,4.014-8.957,4.262
			c-2.938,0.468-5.295-0.218-7.131-1.321c-3.41-1.639-5.694-4.586-5.694-7.963c0-5.15,3.931-9.326,10.463-9.326
			c0,0,3.298-1.081,3.468-2.445c0,0,18.823-22.972-32.127-23.938c-54.587-1.037-88.253,34.771-88.253,68.688
			c0,33.918,33.504,57.319,74.833,57.319s77.831-27.896,80.747-62.322C172.452,360.938,170.119,354.796,170.119,354.796z
			 M135.83,376.573c-5.774,4.646-16.325,7.036-19.789,2.729c-3.464-4.31-0.315-11.505,5.459-16.149
			c5.775-4.646,15.415-4.308,18.879,0C143.843,367.462,141.605,371.931,135.83,376.573z"/>
		<circle fill="#941313" cx="77.201" cy="347.174" r="13"/>
		<circle fill="#3E6E7A" cx="44.201" cy="376.174" r="13"/>
		<circle fill="#AA7522" cx="77.201" cy="402.174" r="13"/>
	</g>
	<path fill="#FFFFFF" d="M92.988-33.646c-15.493-8.808-3.696-37.212,16.701-36.358c-2.629-11.862,22.479-30.417,42.978-12.564
		c2.584-13.414,42.127-16.116,47.606,5.29c5.953-15.208,51.393-7.021,40.334,20.498c17.854-3.967,25.935,42.798-3.389,44.284
		c7.817,16.527-21.044,31.97-32.593,21.728c1.549,14.295-40.735,26.643-48.905,3.981c-3.203,14.295-45.371,4.759-39.035-14.62
		C104.234,6,78.307-17.283,92.988-33.646z"/>
	<path fill="#FFFFFF" d="M270.35,107.877c-2.865,4.582-0.707,12.985,8.596,6.301c0.672,6.686,13.434,7.361,15.727-0.087
		c6.877,4.582,12.797-1.13,8.91-8.507c7.449-0.573,4.639-16.146-5.334-10.312c2.445-5.835-12.771-11.813-14.491-2.07
		c-3.438-5.159-12.606-5.459-12.421,3.947C265.732,94.863,261.171,107.691,270.35,107.877z"/>
	<path fill="#FFFFFF" d="M228.013,53.306c-5.237,8.376-1.292,23.737,15.713,11.518c1.229,12.221,24.557,13.457,28.748-0.159
		c12.571,8.376,23.393-2.065,16.287-15.55c13.617-1.048,8.479-29.516-9.75-18.849c4.47-10.667-23.346-21.593-26.489-3.785
		c-6.286-9.431-23.045-9.979-22.705,7.216C219.573,29.515,211.234,52.965,228.013,53.306z"/>
	<path fill="#FFFFFF" d="M278.133,259.237c0.106-5.37-5.127-5.198-7.09-2.254c-0.981-5.561-9.667-2.148-8.271,1.183
		c-5.692-3.331-7.297,5.559-3.045,5.886c-2.219,4.21,1.161,7.472,5.086,4.856c1.309,4.251,8.593,3.864,8.977,0.049
		c5.311,3.815,6.543-0.98,4.906-3.597C283.936,265.254,281.331,257.931,278.133,259.237z"/>
	<path fill="#FFFFFF" d="M299.403,217.592c0.194-9.814-9.372-9.502-12.96-4.119c-1.794-10.166-17.672-3.928-15.12,2.16
		c-10.405-6.088-13.338,10.162-5.565,10.759c-4.057,7.697,2.121,13.657,9.297,8.876c2.393,7.771,15.707,7.067,16.409,0.091
		c9.706,6.975,11.958-1.793,8.969-6.574C310.01,228.591,305.25,215.205,299.403,217.592z"/>
	<path fill="#FFFFFF" d="M269.825,295.837c1.47-2.245-2.552-5.648-4.407-2.552c-1.471-2.86-6.109-1.083-4.176,2.243
		c-2.014,2.087-0.697,5.258,2.396,4.33c0.465,3.325,5.954,1.935,5.027-0.312C270.677,300.554,272.996,297.074,269.825,295.837z"/>
	<path fill="#FFFFFF" d="M354.698,184.28c3.617,11.061-20.452,16.504-22.279,8.345c-4.664,12.935-28.801,5.887-27.917-2.272
		c-6.592,5.847-23.066-2.968-18.604-12.402c-16.737-0.848-12.125-27.542-1.935-25.277c-6.313-15.709,19.625-20.382,23.022-11.701
		c3.128-12.218,25.699-10.676,27.175-3.02c11.7-10.19,26.03,0.401,24.53,7.172c11.644-0.487,18.378,15.727,9.534,20.754
		C376.606,175.219,361.806,188.509,354.698,184.28z"/>
	<circle fill="#E0A319" cx="177.2" cy="-42.494" r="24"/>
	<g>
		<path d="M-102.415-427.556c-0.748,8.238-3.13,16.233-7.125,23.851c-0.216,0.383-21.716,39.124-21.733,62.979
			c0,0-0.742,7.253-0.81,7.654c-2.032,8.3-7.266,9.541-10.204,9.541h-42.025c-2.934,0-8.162-1.241-10.266-9.942
			c0,0-0.741-7.253-0.758-7.551c0-13.742-7.44-35.592-20.952-61.521l-0.952-2.294l0.351,1.095
			c-4.073-7.405-6.522-15.418-7.302-23.943c0,0-0.243-5.354-0.249-5.492c0-16.334,6.36-31.686,17.903-43.228
			c11.556-11.554,26.915-17.919,43.246-17.919c5.865,0,11.667,0.828,17.256,2.47c9.761,2.872,18.746,8.214,25.984,15.449
			c11.545,11.549,17.897,26.9,17.897,43.365C-102.153-433.042-102.402-427.687-102.415-427.556z M-124.209-472.248
			c-6.541-6.544-14.664-11.375-23.479-13.967c-5.05-1.481-10.302-2.233-15.602-2.233c-14.762,0-28.646,5.753-39.088,16.2
			c-10.435,10.432-16.182,24.305-16.185,38.935c0,0,0.236,5.157,0.236,5.223c0.693,7.584,2.908,14.823,6.699,21.755l0.555,1.075
			c13.928,26.726,21.603,49.519,21.603,63.896c0,0.012,0,0.027,0,0.042c0,0,0.679,6.623,0.679,6.864
			c1.238,5.044,3.512,5.047,4.479,5.047h18.29l-0.106-11.852c-0.039-11.329-0.21-24.854-1.238-37.066
			c-2.362-0.547-4.922-1.78-8.775-4.287l-1.527-0.988c-9.334-6.033-13.108-14.755-13.108-22.251c0-1.865,0.233-3.657,0.675-5.306
			c1.376-5.15,4.756-8.481,8.823-8.695c4.059-0.213,10.003,2.428,15.277,16.227c1.077,2.818,1.795,6.445,2.507,10.085
			c3.443-13.313,8.491-26.473,16.233-30.198c3.18-1.53,6.633-1.415,9.985,0.329c3.314,1.722,5.188,4.525,5.421,8.108
			c0.013,0.247,0.023,0.499,0.023,0.755c0,11.533-16.37,27.289-20.279,30.017c-3.715,2.592-6.318,4.213-8.592,5.306
			c-0.085,0.408-0.168,0.729-0.25,1.147c0,0-0.265,1.342-0.313,1.582c0.867,11.832,0.982,24.522,1.02,35.218l0.104,11.871h17.857
			c0.975,0,3.256,0,4.421-4.658c0,0,0.745-7.253,0.729-6.954c0-25.385,22.261-65.194,22.438-65.501
			c3.583-6.842,5.75-14.098,6.419-21.436c0,0,0.246-5.211,0.249-5.22C-108.031-447.937-113.774-461.81-124.209-472.248z
			 M-168.018-384.745c-0.788-6.44-1.809-12.418-3.476-16.784c-3.587-9.374-7.351-12.571-9.479-12.456
			c-1.418,0.073-2.771,1.777-3.456,4.338c-0.299,1.132-0.457,2.373-0.457,3.683c0,5.677,2.991,12.632,10.405,17.42l1.539,1.001
			C-170.83-386.172-169.345-385.32-168.018-384.745z M-159.019-387.018c1.229-0.81,2.274-1.458,4.006-2.665
			c3.685-2.566,17.302-16.842,17.302-24.814c0-0.146-0.006-0.286-0.012-0.431c-0.102-1.521-0.779-2.498-2.268-3.271
			c-1.719-0.897-3.219-0.974-4.725-0.25C-148.438-416.656-153.775-409.513-159.019-387.018z M-189.75-316.151
			c0-2.896,2.412-5.238,5.382-5.238h42.143c2.97,0,5.382,2.345,5.382,5.238c0,2.902-2.412,5.255-5.382,5.255
			c2.97,0,5.382,2.354,5.382,5.251c0,2.897-2.412,5.248-5.382,5.248c2.97,0,5.382,2.354,5.382,5.247
			c0,2.906-2.412,5.255-5.382,5.255h-42.143c-2.97,0-5.382-2.349-5.382-5.255c0-2.893,2.412-5.247,5.382-5.247
			c-2.97,0-5.382-2.353-5.382-5.248c0-2.895,2.412-5.251,5.382-5.251C-187.337-310.896-189.75-313.249-189.75-316.151z
			 M-178.661-296.752h23.181c1.64,0,2.957-1.327,2.957-2.972c0-1.637-1.317-2.963-2.957-2.963h-23.181
			c-1.624,0-2.957,1.326-2.957,2.963C-181.618-298.08-180.285-296.752-178.661-296.752z M-179.19-308.612h31.786
			c1.643,0,2.973-1.329,2.973-2.969c0-1.631-1.33-2.957-2.973-2.957h-31.786c-1.644,0-2.973,1.326-2.973,2.957
			C-182.162-309.941-180.833-308.612-179.19-308.612z M-163.291-279.308c-6.931,0-13.061-3.371-16.879-8.555h33.748
			C-150.233-282.679-156.373-279.308-163.291-279.308z"/>
	</g>
	<g>
		<g>
			<g>
				<path d="M157.945-21.405c0.182-0.06,0.363-0.119,0.546-0.178c0.43-0.142,0.981-0.685,0.829-1.193
					c-3.534-11.915-6.859-24.854,2.388-35.132c7.578-8.422,21.063-10.965,31.604-7.879c12.508,3.662,16.84,16.992,11.297,28.163
					c-5.64,11.361-19.004,15.857-30.262,19.3c-0.484,0.148-1.375,1.326-0.511,1.583c1.585,0.471,4.421,1.913,1.331,2.629
					c-3.354,0.777-6.725,1.267-10.146,1.656c-4.024,0.457-8.896,0.3-12.735,1.701c-0.517,0.188-1.197,0.975-0.662,1.498
					c1.444,1.41,4.526,1.101,6.409,1.224c4.726,0.308,9.467,0.673,14.183,1.112c0.111-0.537,0.222-1.074,0.332-1.611
					c-5.952,1.09-11.961,0.693-17.911,1.594c-1.744,0.266-3.973,0.792-4.355,2.751c-0.491,2.503,18.195,2.267,18.925,2.392
					c0.17-0.528,0.34-1.058,0.509-1.583c-4.729,1.104-9.294,1.64-14.14,1.706c-2.548,0.032-4.927,1.351-6.966,2.745
					c-0.403,0.276-0.719,1.137-0.121,1.38c3.176,1.294,7.26,0.783,10.613,0.614c0.801-0.041,1.543-1.688,0.523-1.638
					c-3.172,0.16-7.253,0.664-10.258-0.561c-0.041,0.459-0.081,0.919-0.121,1.378c3.953-2.706,7.521-1.978,11.891-2.477
					c2.844-0.325,5.653-0.917,8.438-1.565c0.479-0.112,1.374-1.438,0.509-1.583c-5.258-0.899-10.559-0.292-15.842-0.764
					c-1.725-0.151-2.122-0.649-0.444-1.052c2.16-0.517,4.396-0.528,6.604-0.624c4.057-0.176,8.009-0.396,12.008-1.131
					c0.675-0.124,1.314-1.521,0.332-1.611c-3.547-0.33-7.102-0.549-10.653-0.806c-2.007-0.146-7.723,0.216-9.276-1.304
					c-0.223,0.5-0.441,0.999-0.662,1.498c7.869-2.871,17.151-1.067,25.166-3.944c4.834-1.734-0.34-4.537-2.596-5.208
					c-0.171,0.528-0.341,1.056-0.51,1.583c12.454-3.807,24.889-8.609,31.669-20.461c6.224-10.875,2.035-23.693-9.008-29.133
					c-11.215-5.523-26.142-1.582-35.029,6.477c-11.182,10.138-7.815,25.149-4.038,37.881c0.276-0.396,0.553-0.795,0.829-1.191
					c-0.182,0.06-0.362,0.119-0.546,0.178C157.309-22.738,156.872-21.057,157.945-21.405L157.945-21.405z"/>
			</g>
		</g>
		<g>
			<g>
				<path d="M167.732-19.805c2.697-3.827,5.524-7.549,7.785-11.653c0.403-0.736,3.031-3.793,2.117-4.848
					c-0.775-0.896-0.611-0.773-1.835-0.637c-5.474,0.619-3.356-4.548-2.397-7.75c0.693-2.311,1.863-4.514,3.322-6.433
					c1.736,0.354,2.293,1.33,1.664,2.926c-0.367,2.43-1.098,4.733-2.134,6.964c-0.421,0.905,0.563,1.431,1.128,0.626
					c2.315-3.302,4.27-6.032,7.891-8.137c0.4-0.213,0.803-0.427,1.203-0.642c2.176-1.689,3.823-1.085,4.947,1.818
					c-1.98,2.38-4.761,3.652-7.472,4.986c-0.81,0.396-0.83,1.963,0.256,1.429c1.793-0.883,13.21-6.635,8.89-10.261
					c-2.289-1.921-5.943,0.104-8.078,1.238c-3.875,2.063-6.14,5.193-8.623,8.736c0.377,0.209,0.752,0.418,1.129,0.626
					c1.047-2.252,4.527-9.887,1.666-12.173c-2.258-1.804-4.377,2.179-5.289,3.806c-1.535,2.738-5.422,10.929-2.108,13.707
					c0.985,0.827,4.656,0.083,3.284,2.085c-2.861,4.178-5.398,8.593-8.333,12.755C166.098-19.717,167.068-18.864,167.732-19.805
					L167.732-19.805z"/>
			</g>
		</g>
		<path d="M154.07-19.921l-2.666,4.849c0,0,12.545,1.645,19.097-0.485S155.061-16.012,154.07-19.921z"/>
		<path d="M144.109,3.08l17.85,5.042C161.958,8.122,150.645,12.388,144.109,3.08z"/>
	</g>
	<polygon points="120.816,-51.364 122.344,-59.289 147.45,-48.288 	"/>
	<polygon points="127.659,-71.771 132.591,-78.16 150.055,-57.032 	"/>
	<path fill="#E0A319" d="M332.554,158.155l8.524-12.398l-13.949,9.298l-1.549-8.781l-2.584,8.006l-10.331-11.623l2.324,12.915
		l-11.881-2.583l10.333,7.749l-11.624,1.549l10.332,5.166l-7.49,6.458l10.85-1.292l-6.718,13.172l13.432-9.556l11.107,12.656
		l-5.166-15.757l16.271,8.266l-11.364-11.624l17.048-2.582l-15.498-3.101l9.04-6.716L332.554,158.155z"/>
	<g id="white_boxes">
		<rect x="999.05" y="-781.29" fill="#FFFFFF" width="730" height="626"/>
	</g>
	<path fill="none" stroke="#FF1F70" stroke-miterlimit="10" d="M176.601,762.077c3.809,13.602-3.518,45.973-27.359,57.521
		c-23.46,12.304-53.845-1.051-62.517-12.199c-9.396-11.382,12.008-14.99,41.302-29.872
		C157.409,762.821,173.036,747.756,176.601,762.077z"/>
</g>
<g id="Layer_2">
	<path d="M73.489,748.615c-21.633,4.676-41.047,33.063-55.052,44.389C4.431,806.925-4.167,803.784-4.167,805.361
		c44.6,21.477,75.774,8.338,89.918-12.828C99.896,771.997,97.01,743.435,73.489,748.615z"/>
	<path d="M103.993,748.615c21.633,4.676,41.047,33.063,55.052,44.389c14.006,13.922,22.604,10.781,22.604,12.357
		c-44.6,21.477-75.774,8.338-89.918-12.828C77.586,771.997,80.473,743.435,103.993,748.615z"/>
</g>
</svg>
