<?xml version="1.0" encoding="utf-8"?>
<!-- Generator: Adobe Illustrator 15.1.0, SVG Export Plug-In . SVG Version: 6.00 Build 0)  -->
<!DOCTYPE svg PUBLIC "-//W3C//DTD SVG 1.1//EN" "http://www.w3.org/Graphics/SVG/1.1/DTD/svg11.dtd">
<svg version="1.1" xmlns="http://www.w3.org/2000/svg" xmlns:xlink="http://www.w3.org/1999/xlink" x="0px" y="0px"
	 width="379.625px" height="402px" viewBox="-147.497 626.281 379.625 402" enable-background="new -147.497 626.281 379.625 402"
	 xml:space="preserve">
<g id="Layer_3">
	<g id="Layer_7">
		<path stroke="#FFFFFF" stroke-width="1.0218" stroke-miterlimit="10" d="M73.32,841.982c0,0-117.162,11.579-151.902-47.683
			c0,0-34.74-5.449-39.508,4.769c-4.768,10.217,38.146,7.491,42.914,19.071c4.768,11.582,52.451,53.813,141.003,64.031
			C65.827,882.17,76.726,859.693,73.32,841.982z"/>
	</g>
	<path d="M55.269,815.755c0,0,83.784-10.218,143.046-48.022c0,0,89.915,186.981-23.5,260.549c0,0-121.59-48.022-166.547-18.393
		C-36.689,1039.521,100.226,890.343,55.269,815.755"/>
	<g id="Layer_4">
		<path fill="#FFFFFF" d="M175.294,820.514c0,0-11.355,77.113-55.374,85.428c-44.019,8.313,1.096,1.057,1.096,1.057
			s2.982-75.455-43.517-97.906c-46.499-22.45,0.408-1.3,0.408-1.3s59.14,18.565,96.086,12.314"/>
	</g>
	<path stroke="#FFFFFF" stroke-width="1.0218" stroke-miterlimit="10" d="M210.576,795.32c0,0-118.524,148.155-222.744,103.198
		c0,0,10.217,33.718,39.849,35.761c29.631,2.044,128.742-7.151,197.2-89.914L210.576,795.32z"/>
</g>
<g id="bunny">
	<g id="Layer_9">
	</g>
	<g>
		<path fill="#FFFFFF" stroke="#000000" stroke-width="1.3357" stroke-miterlimit="10" d="M-91.883,741.457
			c0.983-0.672,1.92-1.439,2.8-2.297c0.414,0.036,0.831,0.061,1.254,0.061c7.5,0,13.58-5.683,13.58-12.689
			c0-4.69-2.73-8.777-6.782-10.973c-0.455-5.862-2.416-11.16-5.381-15.258c3.854-4.339,8.243-9.833,11.714-16.604
			c4.925-11.141,10.218-21.94,10.134-28.591c0.239-6.771-4.897-9.393-13.371-6.979c-7.199,2.848-13.135,7.874-17.708,12.226
			c-4.479,4.616-7.599,8.558-6.991,15.328c0.146,5.217-1.021,10.684-1.204,16.274c-1.271,0.172-2.506,0.487-3.698,0.94
			c0.144-6.385-1.38-12.63-1.214-18.551c0.608-6.771-2.511-10.711-6.991-15.326c-4.574-4.353-10.509-9.381-17.708-12.228
			c-8.474-2.414-13.61,0.207-13.372,6.979c-0.083,6.649,5.209,17.449,10.134,28.592c5.311,10.357,12.765,17.73,17.169,22.538
			c-1.414,3.084-2.351,6.566-2.681,10.284c-4.203,2.307-7.039,6.619-7.039,11.571c0,7.376,6.28,13.356,14.026,13.356
			c0.649,0,1.284-0.057,1.911-0.138c1.197,1.042,2.485,1.926,3.843,2.634c-8.766,4.314-14.882,14.029-14.882,25.33
			c-1.761,8.628,0.504,14.266,5.694,17.596c4.594,6.181,11.557,10.123,19.351,10.123c7.795,0,14.758-3.942,19.351-10.123
			c5.19-3.33,7.456-8.968,5.694-17.596C-74.249,755.487-81.669,744.952-91.883,741.457z"/>
		<circle cx="-112.094" cy="710.058" r="2.671"/>
		<circle cx="-92.058" cy="710.058" r="2.672"/>
		<ellipse cx="-101.742" cy="721.411" rx="4.119" ry="3.563"/>
		<text transform="matrix(1 0 0 1 -103.8569 730.094)" font-family="'MyriadPro-Regular'" font-size="8.0144">J</text>
		<text transform="matrix(-1 0 0 1 -98.9595 730.094)" font-family="'MyriadPro-Regular'" font-size="8.0144">J</text>
	</g>
</g>
<g id="Layer_5">
	<g>
		<polygon fill="#FFFFFF" stroke="#000000" stroke-width="0.4345" stroke-miterlimit="10" points="4.708,907.956 -21.07,907.666 
			-30.049,862.773 6.735,861.904 		"/>
		<g>
			<path fill="#ED1F24" d="M-18.384,868.209c-0.692,0-0.98,0.212-1.552,0.893l-0.89,1.062l-0.891-1.062
				c-0.571-0.681-0.86-0.893-1.551-0.893c-0.113,0-0.238,0.007-0.369,0.02c-0.48,0.047-1.229,0.559-1.342,1.776v0.508
				c0.141,1.528,1.538,3.284,4.153,5.229c2.616-1.945,4.012-3.701,4.153-5.229v-0.508c-0.115-1.218-0.862-1.729-1.343-1.776
				C-18.147,868.216-18.271,868.209-18.384,868.209L-18.384,868.209z"/>
		</g>
		<g>
			<path fill="#ED1F24" d="M-9.405,877.478c-0.692,0-0.98,0.212-1.551,0.892l-0.891,1.063l-0.891-1.062
				c-0.571-0.681-0.859-0.893-1.551-0.893c-0.113,0-0.238,0.007-0.369,0.02c-0.481,0.048-1.229,0.56-1.344,1.775v0.509
				c0.142,1.529,1.538,3.285,4.154,5.229c2.616-1.944,4.012-3.702,4.153-5.229v-0.509c-0.114-1.216-0.862-1.728-1.343-1.775
				C-9.168,877.485-9.292,877.478-9.405,877.478L-9.405,877.478z"/>
		</g>
		<g>
			<path fill="#ED1F24" d="M-0.716,887.615c-0.692,0-0.98,0.212-1.551,0.892l-0.891,1.062l-0.891-1.061
				c-0.571-0.681-0.859-0.893-1.551-0.893c-0.113,0-0.238,0.006-0.369,0.02c-0.481,0.047-1.229,0.56-1.343,1.775v0.509
				c0.142,1.528,1.538,3.285,4.154,5.229c2.616-1.943,4.012-3.7,4.153-5.229v-0.509c-0.114-1.216-0.862-1.729-1.343-1.775
				C-0.479,887.621-0.604,887.615-0.716,887.615L-0.716,887.615z"/>
		</g>
	</g>
	<g>
		<polygon fill="#FFFFFF" stroke="#000000" stroke-width="0.5716" stroke-miterlimit="10" points="-2.221,909.771 -33.352,923.239 
			-68.203,874.108 -24.468,853.346 		"/>
		<g>
			<path fill="#ED1F24" d="M-51.272,874.388c-0.831,0.37-1.064,0.78-1.386,1.903l-0.501,1.753l-1.64-0.799
				c-1.052-0.512-1.512-0.609-2.341-0.239c-0.137,0.061-0.283,0.134-0.434,0.22c-0.552,0.314-1.177,1.33-0.661,2.854l0.272,0.611
				c0.989,1.761,3.608,3.122,7.793,4.057c2.101-3.739,2.837-6.598,2.188-8.508l-0.272-0.612c-0.791-1.4-1.963-1.616-2.566-1.413
				C-50.984,874.267-51.136,874.327-51.272,874.388L-51.272,874.388z"/>
		</g>
		<g>
			<path fill="#ED1F24" d="M-35.516,880.712c-0.831,0.37-1.064,0.778-1.386,1.902l-0.5,1.755l-1.64-0.799
				c-1.052-0.513-1.512-0.611-2.342-0.24c-0.136,0.06-0.281,0.135-0.433,0.22c-0.552,0.315-1.177,1.33-0.662,2.854l0.273,0.61
				c0.989,1.763,3.608,3.125,7.794,4.059c2.101-3.738,2.836-6.599,2.188-8.509l-0.272-0.612c-0.789-1.4-1.962-1.615-2.565-1.415
				C-35.227,880.593-35.38,880.65-35.516,880.712L-35.516,880.712z"/>
		</g>
		<g>
			<path fill="#ED1F24" d="M-19.641,888.237c-0.831,0.369-1.064,0.779-1.386,1.903l-0.501,1.752l-1.639-0.796
				c-1.052-0.512-1.512-0.612-2.343-0.242c-0.136,0.061-0.282,0.134-0.433,0.222c-0.553,0.313-1.177,1.331-0.663,2.853l0.273,0.612
				c0.989,1.759,3.608,3.122,7.794,4.056c2.101-3.737,2.837-6.597,2.188-8.51l-0.273-0.61c-0.789-1.4-1.962-1.616-2.565-1.413
				C-19.353,888.115-19.505,888.176-19.641,888.237L-19.641,888.237z"/>
		</g>
	</g>
	<g id="Favorite">
	</g>
</g>
<g id="Layer_1">
	<g id="BG" display="none">
		<rect x="-7.799" y="-53.826" display="inline" fill="#D89E8C" width="1284" height="662"/>
	</g>
	<g id="legs">
		<path fill="#5B3B29" d="M1028.876,464.174c15.37-11.647,46.179-44.557,18.325-108c-36-82-53,29-53,29l1,3
			c0,0-161.391-10.083-168.046,76H1028.876z"/>
		<path fill="#7A543B" d="M1060.139,464.174c15.978-10.539,39.52-37.02,14.063-95c-36-82-39,29-39,29l1,3
			c0,0-160.052-20.915-167.96,63H1060.139z"/>
	</g>
	<g id="arm2">
		<g>
			<path fill="#E2D9D3" d="M1066.201,289.507l-3.667-13c-9,12-18,23-30,32c-11,9-25,16-39,18c-28,5-54-4-79-15c-15-7-33-15-50-5
				c-12,8-14,20-13,33c7-5,13-11,22-13c9-3,20,0,29,4c27,11,52,29,82,34c25,4,50-5,64-26c9-14,18-31.666,17-47.666"/>
		</g>
	</g>
	<g id="body">
		<path fill="#F4F1EF" d="M973.201,253.174c67,51-111,153-67,141s185,71,223-8s-36-174-36-174L973.201,253.174z"/>
		<polygon fill="#63B9D3" points="1048.571,294.263 1048.711,294.09 1048.432,294.09 1037.956,281.095 1027.201,267.754 
			1016.446,281.095 1005.969,294.09 1005.691,294.09 1005.831,294.263 1005.691,294.436 1005.969,294.436 1016.446,307.431 
			1027.201,320.771 1037.956,307.431 1048.432,294.436 1048.711,294.436 		"/>
		<g>
			<path fill="#63B9D3" d="M1025.201,294.174c-0.939,1.604-1.806,3.21-2.604,4.813c-10.788,21.197-8.788,42.396-8.389,63.593
				c0.88,21.197,0.158,42.396-5.009,63.595c12.74,14.667,22.08,29.333,21,44c16.354-14.667,22.713-29.333,24-44"/>
		</g>
	</g>
	<g id="arm1">
		<g>
			<path fill="#E2D9D3" d="M1120.868,261.507l-3.667-13c-9,12-18,23-30,32c-11,9-25,16-39,18c-28,5-54-4-79-15c-15-7-33-15-50-5
				c-12,8-14,20-13,33c7-5,13-11,22-13c9-3,20,0,29,4c27,11,52,29,82,34c25,4,50-5,64-26c9-14,18-31.666,17-47.666"/>
		</g>
	</g>
	<g id="head">
		<ellipse fill="#DDB597" cx="1014.701" cy="164.174" rx="103.5" ry="98"/>
		<path fill="#DDB597" d="M1106.201,137.174c0,49.153-21.414,104-72.5,104s-92.5-39.847-92.5-89s41.414-89,92.5-89
			S1106.201,88.021,1106.201,137.174z"/>
	</g>
	<g id="hair">
		<path d="M1051.228,132.114c0,0,33.166-40.28,26.945-62.543c0,0-120.225-38.16-169.973,63.604
			C908.201,133.174,1043.971,98.192,1051.228,132.114z"/>
		<path d="M1086.256,141.174c14.569-28,32.26,20,32.26,20c5.202-50-33.3-86-33.3-86c5.203,29-26.015,57-26.015,57"/>
	</g>
	<g id="eyes">
		<path d="M937.535,143.174v-6c0,0,45.333-23.333,45.333,0l-6.667,0.667C976.201,137.84,974.869,123.841,937.535,143.174z"/>
		<path d="M998.201,151.84v-6c0,0,45.333-23.333,45.333,0l-6.667,0.667C1036.867,146.507,1035.535,132.507,998.201,151.84z"/>
	</g>
	<g id="beard">
		<path d="M1107.544,130.315c-13.564,41.686-46.203,71.859-92.995,71.859c-6.206,0-12.282-0.541-18.189-1.561
			c-79.521-5.92-81.562-49.294-78.99-70.921c-0.282-0.885-3.57-1.767-3.828-2.662c-3.245,9.977-5.005,20.604-5.005,31.644
			c0,57.161,47.011,103.5,105,103.5c57.988,0,105-46.339,105-103.5C1118.534,148.84,1110.143,139.327,1107.544,130.315z
			 M949.453,196.84c0,0,34.492,22,115.651,0.667C1065.104,197.507,1001.529,299.507,949.453,196.84z"/>
	</g>
	<g id="legs2">
		<polygon fill="#7A543B" points="113.138,464.174 122.535,390.175 51.868,368.175 28.31,464.174 		"/>
		<polygon fill="#5B3B29" points="177.392,464.174 186.535,392.175 115.868,370.175 92.8,464.174 		"/>
	</g>
	<g id="body2">
		<path fill="#62B8D2" d="M67.201,211.174c0,0-132,112-26,202c0,0,126-52,154-6c0,0-55-116-13-165S87.201,246.174,67.201,211.174z"
			/>
		<path fill="none" stroke="#4F77B2" stroke-miterlimit="10" d="M17.201,338.174c0,0,63,12,75-11s19,69-23,73
			S20.201,363.174,17.201,338.174z"/>
		<path fill="none" stroke="#4F77B2" stroke-width="0.6081" stroke-miterlimit="10" d="M111.332,327.932
			c0,0,34.691,17.823,45.644,6.468c10.951-11.354-0.771,43.517-25.959,38.634C105.827,368.151,108.787,343.03,111.332,327.932z"/>
	</g>
	<g id="arm1_1_">
		<g>
			<path fill="#4A96A3" d="M53.466,204.274l10.191-1.018c-5.2,10.884-9.711,21.462-11.828,33.837
				c-2.457,11.574-2.517,24.944,0.863,36.795c6.073,24.001,21.1,42.128,37.164,58.845c9.913,9.907,21.534,21.917,20.43,38.614
				c-1.43,12.071-9.007,17.334-18.293,20.495c1.063-7.146,3.153-13.789,1.47-21.624c-0.992-8.142-6.795-16.058-12.604-22.063
				c-16.744-18.32-37.625-32.9-51.258-55.461c-11.247-18.852-13.547-41.663-3.854-59.303c6.577-11.492,15.676-24.101,27.027-28.175"
				/>
		</g>
	</g>
	<g id="head2">
		<ellipse fill="#DDB597" cx="138.499" cy="157.174" rx="103.5" ry="98"/>
		<path fill="#DDB597" d="M46.999,130.174c0,49.153,21.414,104,72.5,104s92.5-39.847,92.5-89s-41.414-89-92.5-89
			S46.999,81.021,46.999,130.174z"/>
		<path d="M101.974,125.114c0,0-33.166-40.28-26.947-62.543c0,0,120.225-38.16,169.973,63.604
			C244.999,126.174,109.229,91.192,101.974,125.114z"/>
		<path d="M66.944,134.174c-14.569-28-32.26,20-32.26,20c-5.202-50,33.3-86,33.3-86c-5.203,29,26.015,57,26.015,57"/>
		<path d="M215.665,159.507v-6c0,0-45.333-23.333-45.333,0l6.667,0.667C176.999,154.173,178.331,140.174,215.665,159.507z"/>
		<path d="M154.999,144.84v-6c0,0-45.333-23.333-45.333,0l6.667,0.667C116.333,139.507,117.665,125.507,154.999,144.84z"/>
		<path d="M34.666,151.674c0,57.161,47.011,103.5,105,103.5c57.989,0,105-46.339,105-103.5c0-11.037-1.76-21.667-5.005-31.644
			c-0.259,0.896-3.546,1.777-3.828,2.662c2.569,21.627,0.53,65-78.99,70.921c-5.908,1.02-11.984,1.561-18.19,1.561
			c-46.792,0-79.43-30.175-92.995-71.859C43.057,132.327,34.666,141.84,34.666,151.674z"/>
		<path fill="none" stroke="#DDB597" stroke-miterlimit="10" d="M96.201,225.174c29,0,18-31.5,49.5,0"/>
	</g>
	<ellipse fill="#DDB597" cx="104.009" cy="730.104" rx="105.752" ry="100.134"/>
	<path fill="#DDB597" d="M123.422,626.906c-52.197,0-94.513,40.714-94.513,90.937c0,50.224,42.315,90.937,94.513,90.937
		c52.198,0,74.078-56.04,74.078-106.263S175.62,626.906,123.422,626.906z"/>
	<path d="M-4.81,698.431c50.831-103.979,173.672-64.988,173.672-64.988c6.354,22.746-27.534,63.903-27.534,63.903
		C133.916,662.686-4.809,698.43-4.81,698.431z"/>
	<path d="M149.478,697.408c0,0,31.897-28.609,26.581-58.241c0,0,39.34,36.783,34.024,87.872c0,0-18.076-49.045-32.961-20.436"/>
	<path d="M64.671,727.039l6.812-0.682c0-23.841-46.32,0-46.32,0v6.131C63.31,712.735,64.671,727.038,64.671,727.039z"/>
	<path d="M126.657,712.053l6.813-0.682c0-23.841-46.32,0-46.32,0v6.131C125.296,697.748,126.657,712.053,126.657,712.053z"/>
	<g id="Layer_16">
	</g>
	<g id="arm2_1_">
		<g>
			<path fill="#4A96A3" d="M172.042,366l9.208,3.089c-3.48-10.21-6.369-20.018-6.853-30.79c-0.891-10.185,0.625-21.336,5.109-30.465
				c8.377-18.661,24.261-30.46,40.928-40.854c10.235-6.074,22.282-13.523,23.232-27.679c0.109-10.371-6.208-16.422-14.338-21.097
				c0.134,6.186,1.27,12.182-1.191,18.339c-1.865,6.562-8.104,11.882-14.129,15.605c-17.478,11.583-38.302,19.142-53.431,34.938
				c-12.507,13.229-17.292,31.729-10.49,48.559c4.67,11.021,11.52,23.525,21.431,29.416"/>
		</g>
	</g>
	<g id="palet">
		<path fill="#7A3B1B" d="M170.119,351.796c-11.088-28.147-25.927-6.063-25.927-6.063c-1.935,2.376-5.191,4.014-8.957,4.262
			c-2.938,0.468-5.295-0.218-7.131-1.321c-3.41-1.639-5.694-4.586-5.694-7.963c0-5.15,3.931-9.326,10.463-9.326
			c0,0,3.298-1.081,3.468-2.445c0,0,18.823-22.972-32.127-23.938c-54.587-1.037-88.253,34.771-88.253,68.688
			c0,33.918,33.504,57.319,74.833,57.319s77.831-27.896,80.747-62.322C172.452,357.938,170.119,351.796,170.119,351.796z
			 M135.83,373.573c-5.774,4.646-16.325,7.036-19.789,2.729c-3.464-4.31-0.315-11.505,5.459-16.149
			c5.775-4.646,15.415-4.308,18.879,0C143.843,364.462,141.605,368.931,135.83,373.573z"/>
		<circle fill="#941313" cx="77.201" cy="344.174" r="13"/>
		<circle fill="#3E6E7A" cx="44.201" cy="373.174" r="13"/>
		<circle fill="#AA7522" cx="77.201" cy="399.174" r="13"/>
	</g>
	<g>
		<path fill="#FFFFFF" d="M251.988,59.354c-15.493-8.808-3.696-37.212,16.701-36.358c-2.629-11.862,22.479-30.417,42.978-12.564
			c2.584-13.414,42.127-16.116,47.606,5.29c5.953-15.208,51.393-7.021,40.334,20.498c17.854-3.967,25.935,42.798-3.389,44.284
			c7.817,16.527-21.044,31.97-32.593,21.728c1.549,14.295-40.735,26.643-48.905,3.981c-3.203,14.295-45.371,4.759-39.035-14.62
			C263.234,99,237.307,75.717,251.988,59.354z M286.35,143.877c-2.865,4.582-0.707,12.985,8.596,6.301
			c0.672,6.686,13.434,7.361,15.727-0.087c6.877,4.582,12.797-1.13,8.91-8.507c7.449-0.573,4.639-16.146-5.334-10.312
			c2.445-5.835-12.771-11.813-14.491-2.07c-3.438-5.159-12.606-5.459-12.421,3.947C281.732,130.863,277.171,143.691,286.35,143.877z
			 M274.146,174.508c-1.625,3.934,7.992,6.369,8.808,0.545c5.42,1.625,7.726-3.93,4.198-7.586c3.388-5.827-4.739-8.942-7.315-3.93
			c-3.252-5.426-10.297,0.538-7.723,4.471C266.561,170.175,270.624,176.271,274.146,174.508z"/>
	</g>
	<g>
		<path fill="#FFFFFF" d="M860.848,104.591c6.336,19.379-35.832,28.915-39.033,14.62c-8.169,22.66-50.455,10.313-48.906-3.981
			c-11.549,10.243-40.41-5.199-32.593-21.728c-29.321-1.486-21.241-48.251-3.39-44.284c-11.058-27.521,34.382-35.707,40.334-20.498
			c5.48-21.405,45.023-18.703,47.607-5.29c20.498-17.853,45.604,0.702,42.977,12.564c20.398-0.854,32.195,27.553,16.702,36.358
			C899.229,88.717,873.3,112,860.848,104.591z M849.2,146.152c0.188-9.407-8.981-9.106-12.421-3.947
			c-1.722-9.741-16.938-3.766-14.491,2.07c-9.972-5.835-12.783,9.737-5.334,10.312c-3.887,7.377,2.033,13.089,8.91,8.507
			c2.293,7.448,15.055,6.771,15.727,0.087c9.302,6.687,11.461-1.72,8.596-6.301C859.364,156.691,854.802,143.863,849.2,146.152z
			 M864.421,181.008c2.574-3.933-4.471-9.896-7.723-4.471c-2.576-5.015-10.703-1.897-7.316,3.93
			c-3.523,3.657-1.221,9.211,4.199,7.586c0.814,5.823,10.433,3.388,8.808-0.545C865.911,189.271,869.975,183.175,864.421,181.008z"
			/>
	</g>
	<circle fill="#E0A319" cx="336.2" cy="50.506" r="24"/>
	<g>
		<path d="M-102.415-427.556c-0.748,8.238-3.13,16.233-7.125,23.851c-0.216,0.383-21.716,39.124-21.733,62.979
			c0,0-0.742,7.253-0.81,7.654c-2.032,8.3-7.266,9.541-10.204,9.541h-42.025c-2.934,0-8.162-1.241-10.266-9.942
			c0,0-0.741-7.253-0.758-7.551c0-13.742-7.44-35.592-20.952-61.521l-0.952-2.294l0.351,1.095
			c-4.073-7.405-6.522-15.418-7.302-23.943c0,0-0.243-5.354-0.249-5.492c0-16.334,6.36-31.686,17.903-43.228
			c11.556-11.554,26.915-17.919,43.246-17.919c5.865,0,11.667,0.828,17.256,2.47c9.761,2.872,18.746,8.214,25.984,15.449
			c11.545,11.549,17.897,26.9,17.897,43.365C-102.153-433.042-102.402-427.687-102.415-427.556z M-124.209-472.248
			c-6.541-6.544-14.664-11.375-23.479-13.967c-5.05-1.481-10.302-2.233-15.602-2.233c-14.762,0-28.646,5.753-39.088,16.2
			c-10.435,10.432-16.182,24.305-16.185,38.935c0,0,0.236,5.157,0.236,5.223c0.693,7.584,2.908,14.823,6.699,21.755l0.555,1.075
			c13.928,26.726,21.603,49.519,21.603,63.896c0,0.012,0,0.027,0,0.042c0,0,0.679,6.623,0.679,6.864
			c1.238,5.044,3.512,5.047,4.479,5.047h18.29l-0.106-11.852c-0.039-11.329-0.21-24.854-1.238-37.066
			c-2.362-0.547-4.922-1.78-8.775-4.287l-1.527-0.988c-9.334-6.033-13.108-14.755-13.108-22.251c0-1.865,0.233-3.657,0.675-5.306
			c1.376-5.15,4.756-8.481,8.823-8.695c4.059-0.213,10.003,2.428,15.277,16.227c1.077,2.818,1.795,6.445,2.507,10.085
			c3.443-13.313,8.491-26.473,16.233-30.198c3.18-1.53,6.633-1.415,9.985,0.329c3.314,1.722,5.188,4.525,5.421,8.108
			c0.013,0.247,0.023,0.499,0.023,0.755c0,11.533-16.37,27.289-20.279,30.017c-3.715,2.592-6.318,4.213-8.592,5.306
			c-0.085,0.408-0.168,0.729-0.25,1.147c0,0-0.265,1.342-0.313,1.582c0.867,11.832,0.982,24.522,1.02,35.218l0.104,11.871h17.857
			c0.975,0,3.256,0,4.421-4.658c0,0,0.745-7.253,0.729-6.954c0-25.385,22.261-65.194,22.438-65.501
			c3.583-6.842,5.75-14.098,6.419-21.436c0,0,0.246-5.211,0.249-5.22C-108.031-447.937-113.774-461.81-124.209-472.248z
			 M-168.018-384.745c-0.788-6.44-1.809-12.418-3.476-16.784c-3.587-9.374-7.351-12.571-9.479-12.456
			c-1.418,0.073-2.771,1.777-3.456,4.338c-0.299,1.132-0.457,2.373-0.457,3.683c0,5.677,2.991,12.632,10.405,17.42l1.539,1.001
			C-170.83-386.172-169.345-385.32-168.018-384.745z M-159.019-387.018c1.229-0.81,2.274-1.458,4.006-2.665
			c3.685-2.566,17.302-16.842,17.302-24.814c0-0.146-0.006-0.286-0.012-0.431c-0.102-1.521-0.779-2.498-2.268-3.271
			c-1.719-0.897-3.219-0.974-4.725-0.25C-148.438-416.656-153.775-409.513-159.019-387.018z M-189.75-316.151
			c0-2.896,2.412-5.238,5.382-5.238h42.143c2.97,0,5.382,2.345,5.382,5.238c0,2.902-2.412,5.255-5.382,5.255
			c2.97,0,5.382,2.354,5.382,5.251c0,2.897-2.412,5.248-5.382,5.248c2.97,0,5.382,2.354,5.382,5.247
			c0,2.906-2.412,5.255-5.382,5.255h-42.143c-2.97,0-5.382-2.349-5.382-5.255c0-2.893,2.412-5.247,5.382-5.247
			c-2.97,0-5.382-2.353-5.382-5.248c0-2.895,2.412-5.251,5.382-5.251C-187.337-310.896-189.75-313.249-189.75-316.151z
			 M-178.661-296.752h23.181c1.64,0,2.957-1.327,2.957-2.972c0-1.637-1.317-2.963-2.957-2.963h-23.181
			c-1.624,0-2.957,1.326-2.957,2.963C-181.618-298.08-180.285-296.752-178.661-296.752z M-179.19-308.612h31.786
			c1.643,0,2.973-1.329,2.973-2.969c0-1.631-1.33-2.957-2.973-2.957h-31.786c-1.644,0-2.973,1.326-2.973,2.957
			C-182.162-309.941-180.833-308.612-179.19-308.612z M-163.291-279.308c-6.931,0-13.061-3.371-16.879-8.555h33.748
			C-150.233-282.679-156.373-279.308-163.291-279.308z"/>
	</g>
	<g>
		<g>
			<g>
				<path d="M316.945,71.595c0.182-0.06,0.363-0.119,0.546-0.178c0.43-0.142,0.981-0.685,0.829-1.193
					c-3.534-11.915-6.859-24.854,2.388-35.132c7.578-8.422,21.063-10.965,31.604-7.879c12.508,3.662,16.84,16.992,11.297,28.163
					c-5.64,11.361-19.004,15.857-30.262,19.3c-0.484,0.148-1.375,1.326-0.511,1.583c1.585,0.471,4.421,1.913,1.331,2.629
					c-3.354,0.777-6.725,1.267-10.146,1.656c-4.024,0.457-8.896,0.3-12.735,1.701c-0.517,0.188-1.197,0.975-0.662,1.498
					c1.444,1.41,4.526,1.101,6.409,1.224c4.726,0.308,9.467,0.673,14.183,1.112c0.111-0.537,0.222-1.074,0.332-1.611
					c-5.952,1.09-11.961,0.693-17.911,1.594c-1.744,0.266-3.973,0.792-4.355,2.751c-0.491,2.503,18.195,2.267,18.925,2.392
					c0.17-0.528,0.34-1.058,0.509-1.583c-4.729,1.104-9.294,1.64-14.14,1.706c-2.548,0.032-4.927,1.351-6.966,2.745
					c-0.403,0.276-0.719,1.137-0.121,1.38c3.176,1.294,7.26,0.783,10.613,0.614c0.801-0.041,1.543-1.688,0.523-1.638
					c-3.172,0.16-7.253,0.664-10.258-0.561c-0.041,0.459-0.081,0.919-0.121,1.378c3.953-2.706,7.521-1.978,11.891-2.477
					c2.844-0.325,5.653-0.917,8.438-1.565c0.479-0.112,1.374-1.438,0.509-1.583c-5.258-0.899-10.559-0.292-15.842-0.764
					c-1.725-0.151-2.122-0.649-0.444-1.052c2.16-0.517,4.396-0.528,6.604-0.624c4.057-0.176,8.009-0.396,12.008-1.131
					c0.675-0.124,1.314-1.521,0.332-1.611c-3.547-0.33-7.102-0.549-10.653-0.806c-2.007-0.146-7.723,0.216-9.276-1.304
					c-0.223,0.5-0.441,0.999-0.662,1.498c7.869-2.871,17.151-1.067,25.166-3.944c4.834-1.734-0.34-4.537-2.596-5.208
					c-0.171,0.528-0.341,1.056-0.51,1.583c12.454-3.807,24.889-8.609,31.669-20.461c6.224-10.875,2.035-23.693-9.008-29.133
					c-11.215-5.523-26.142-1.582-35.029,6.477c-11.182,10.138-7.815,25.149-4.038,37.881c0.276-0.396,0.553-0.795,0.829-1.191
					c-0.182,0.06-0.362,0.119-0.546,0.178C316.309,70.262,315.872,71.943,316.945,71.595L316.945,71.595z"/>
			</g>
		</g>
		<g>
			<g>
				<path d="M326.732,73.195c2.697-3.827,5.524-7.549,7.785-11.653c0.403-0.736,3.031-3.793,2.117-4.848
					c-0.775-0.896-0.611-0.773-1.835-0.637c-5.474,0.619-3.356-4.548-2.397-7.75c0.693-2.311,1.863-4.514,3.322-6.433
					c1.736,0.354,2.293,1.33,1.664,2.926c-0.367,2.43-1.098,4.733-2.134,6.964c-0.421,0.905,0.563,1.431,1.128,0.626
					c2.315-3.302,4.27-6.032,7.891-8.137c0.4-0.213,0.803-0.427,1.203-0.642c2.176-1.689,3.823-1.085,4.947,1.818
					c-1.98,2.38-4.761,3.652-7.472,4.986c-0.81,0.396-0.83,1.963,0.256,1.429c1.793-0.883,13.21-6.635,8.89-10.261
					c-2.289-1.921-5.943,0.104-8.078,1.238c-3.875,2.063-6.14,5.193-8.623,8.736c0.377,0.209,0.752,0.418,1.129,0.626
					c1.047-2.252,4.527-9.887,1.666-12.173c-2.258-1.804-4.377,2.179-5.289,3.806c-1.535,2.738-5.422,10.929-2.108,13.707
					c0.985,0.827,4.656,0.083,3.284,2.085c-2.861,4.178-5.398,8.593-8.333,12.755C325.098,73.283,326.068,74.136,326.732,73.195
					L326.732,73.195z"/>
			</g>
		</g>
		<path d="M313.07,73.079l-2.666,4.849c0,0,12.545,1.645,19.097-0.485S314.061,76.988,313.07,73.079z"/>
		<path d="M303.109,96.08l17.85,5.042C320.958,101.122,309.645,105.388,303.109,96.08z"/>
	</g>
	<polygon points="279.816,41.636 281.344,33.711 306.45,44.712 	"/>
	<polygon points="286.659,21.229 291.591,14.84 309.055,35.968 	"/>
	<g>
		<path fill="#E0A319" d="M822.052,58.824l14.935-21.722l-24.438,16.29l-2.715-15.385l-4.525,14.027l-18.1-20.362l4.072,22.625
			l-20.815-4.524l18.103,13.574l-20.363,2.715l18.101,9.051l-13.122,11.313l19.007-2.263l-11.768,23.077l23.53-16.742l19.458,22.173
			l-9.05-27.604l28.507,14.48l-19.909-20.363l29.865-4.523l-27.15-5.432l15.837-11.766L822.052,58.824z"/>
	</g>
	<g id="white_boxes">
		<rect x="999.05" y="-781.29" fill="#FFFFFF" width="730" height="626"/>
	</g>
	<path fill="none" stroke="#FF1F70" stroke-width="1.0218" stroke-miterlimit="10" d="M179.515,760.658
		c3.892,13.897-3.594,46.973-27.954,58.772c-23.971,12.572-55.017-1.073-63.878-12.464c-9.6-11.63,12.269-15.316,42.201-30.521
		C159.906,761.418,175.873,746.026,179.515,760.658z"/>
</g>
<g id="Layer_2">
	<path d="M74.16,746.903c-22.104,4.777-41.94,33.783-56.25,45.354C3.6,806.483-5.185,803.274-5.185,804.884
		c45.57,21.944,77.423,8.52,91.875-13.107C101.142,770.794,98.193,741.611,74.16,746.903z"/>
	<path d="M105.328,746.903c22.104,4.777,41.94,33.783,56.25,45.354c14.311,14.226,23.095,11.017,23.095,12.627
		c-45.57,21.944-77.423,8.52-91.875-13.107C78.346,770.794,81.295,741.611,105.328,746.903z"/>
</g>
</svg>
